# xmcd
#
# Track frame offsets: 
#        150
#        12923
#        31729
#        50585
#        62890
#        74433
#        90939
#        104228
#        127474
#
# Disc length: 1991 seconds
#
# Revision: 0
# Processed by: cddbd v1.5.2PL0 Copyright (c) Steve Scherf et al.
# Submitted via: ExactAudioCopy v0.95a5
#
DISCID=8107c509
DTITLE=Hora do Banho - Hora do Banho
DYEAR=2008
DGENRE=Ambient
TTITLE0=O caranguejo
TTITLE1=Banho bom
TTITLE2=Água gostosa
TTITLE3=Peixe vivo
TTITLE4=Levemente
TTITLE5=Quem te ensinou a nadar
TTITLE6=Bom barqueiro
TTITLE7=Ondinhas
TTITLE8=Anel de fadas
EXTD=
EXTT0=
EXTT1=
EXTT2=
EXTT3=
EXTT4=
EXTT5=
EXTT6=
EXTT7=
EXTT8=
PLAYORDER=
